<svg viewBox="0 0 60 64" xmlns="http://www.w3.org/2000/svg" shape-rendering="geometricPrecision">
  <ellipse cx="30" cy="58" rx="22" ry="4" fill="#000" opacity="0.45"/>
  <path d="M 44 30 Q 56 30 56 38 Q 56 46 44 46" fill="none" stroke="#0a1226" stroke-width="2.5"/>
  <path d="M 44 32 Q 53 32 53 38 Q 53 44 44 44" fill="none" stroke="#f2ead3" stroke-width="2"/>
  <circle cx="30" cy="34" r="22" fill="#f2ead3" stroke="#0a1226" stroke-width="2.5"/>
  <circle cx="30" cy="34" r="22" fill="none" stroke="#c4b888" stroke-width="1" stroke-dasharray="2 3" opacity="0.6"/>
  <circle cx="30" cy="34" r="18" fill="#2a1709" stroke="#1a0a04" stroke-width="1.5"/>
  <ellipse cx="26" cy="30" rx="7" ry="4" fill="#6b3d20" opacity="0.6"/>
  <ellipse cx="33" cy="36" rx="5" ry="3" fill="#7a5530" opacity="0.5"/>
  <ellipse cx="28" cy="40" rx="4" ry="2" fill="#5a3018" opacity="0.6"/>
  <g fill="none" stroke="#f2ead3" stroke-width="2" opacity="0.65" stroke-linecap="round">
    <path d="M 22 12 Q 24 6 20 2"/>
    <path d="M 30 10 Q 32 4 28 0"/>
    <path d="M 38 12 Q 40 6 36 2"/>
  </g>
</svg>
